# xmcd
#
# Track frame offsets: 
#        150
#        14407
#        27312
#        40105
#        53112
#        65070
#        77290
#        88427
#        102327
#        115427
#        127190
#        139600
#        150785
#        163782
#        175890
#        186690
#        199330
#        210485
#        223040
#        235877
#        248667
#        260140
#        271730
#        283205
#        294247
#        307705
#        321135
#        333467
#
# Disc length: 4609 seconds
#
# Revision: 3
# Processed by: cddbd v1.5.2PL0 Copyright (c) Steve Scherf et al.
# Submitted via: ExactAudioCopyFreeDBPlugin 1.0
#
DISCID=a211ff1c
DTITLE=Various Artist - Okeh Western Swing
DYEAR=1989
DGENRE=Country
TTITLE0=Al Bernard with The Goofus Five - Hesitation Blues
TTITLE1=Emmett Miller and His Georgia Crackers - Lovesick Blues
TTITLE2=Roy Newman and the Boys - Sadie Green (The Vamp from New Orleans
TTITLE2=)
TTITLE3=Blue Ridge Playboys - Give Me My Money
TTITLE4=Range Riders - Range Riders' Stomp
TTITLE5=W. Lee O'Daniel and His Hillbilly Boys - There'll Be Some Chan
TTITLE5=ges Made
TTITLE6=Crystal Springs Ramblers - Fort Worth Stomp
TTITLE7=Bob Wills and His Texas Playboys - Get With It
TTITLE8=Bob Wills and His Texas Playboys - Who Walks in When I Walk Out
TTITLE9=Bob Wills and His Texas Playboys - Too Busy
TTITLE10=Bob Wills and His Texas Playboys - Playboy Stomp
TTITLE11=Bob Wills and His Texas Playboys - Oozzlin' Daddy Blues
TTITLE12=Bob Wills and His Texas Playboys - Pray for the Lights to Go Ou
TTITLE12=t
TTITLE13=Bob Wills and His Texas Playboys - The Girl I Left Behind Me
TTITLE14=Saddle Tramps - Hot as I Am
TTITLE15=Sons of the Pioneers - One More River to Cross
TTITLE16=Light Crust Doughboys - Knocky, Knocky
TTITLE17=Hi-Neighbor Boys - Zeke Terney's Stomp
TTITLE18=Hank Penny and His Radio Cowboys - Chill Tonic
TTITLE19=Swift Jewel Cowboys - When I Put on My Long White Robe
TTITLE20=Sweet Violet Boys - I Love My Fruit
TTITLE21=Ocie Stockard and His Wanderers - Bass Man Jive
TTITLE22=Hi-Flyers - Reno Street Blues
TTITLE23=Sons of the West - Panhandle Shuffle
TTITLE24=Adolf Hofner and His Orchestra - Gulf Coast Special
TTITLE25=Slim Harbert and His Boys - Brown Bottle Blues
TTITLE26=Spade Cooley and His Orchestra - Three-Way Boogie
TTITLE27=Leon McAuliffe and Western Swing Band - Take It Away, Leon
EXTD=ID3G: 2
EXTT0=
EXTT1=
EXTT2=
EXTT3=
EXTT4=
EXTT5=
EXTT6=
EXTT7=
EXTT8=
EXTT9=
EXTT10=
EXTT11=
EXTT12=
EXTT13=
EXTT14=
EXTT15=
EXTT16=
EXTT17=
EXTT18=
EXTT19=
EXTT20=
EXTT21=
EXTT22=
EXTT23=
EXTT24=
EXTT25=
EXTT26=
EXTT27=
PLAYORDER=
